<svg xmlns="http://www.w3.org/2000/svg" width="996" height="998" fill="none"><path fill="#191919" d="M995.784 498.922v-.157c0-29.597-2.817-58.412-7.669-86.913.313-.626.47-1.409.157-2.035-.47-1.566-.939-2.819-1.409-4.229-2.66-13.624-5.79-27.248-9.546-40.716-.157-.626-.157-1.252-.314-1.879-.156-.313-.156-.626-.469-1.096-14.242-50.112-36.153-97.561-65.419-140.939-.626-1.097-1.409-2.349-2.191-3.602-.157-.313-.626-.627-.939-.783-17.059-24.743-36.466-48.233-58.22-70-39.909-39.933-85.608-72.35-134.908-96.152-.313-.313-.626-.627-1.095-.94-.626-.157-1.096-.47-1.878-.626-40.378-19.262-83.417-32.886-127.865-40.716-.156-.157-.626-.157-.782-.157-5.008-.783-9.86-1.722-14.868-2.349a386.455 386.455 0 0 0-19.407-2.349c-1.721-.156-3.443-.156-5.165-.47-5.947-.626-11.581-.94-17.685-1.252-1.878-.157-3.912-.157-5.947-.314-7.356-.47-14.711-.626-22.224-.626-4.382 0-8.607 0-12.833.157-1.878 0-3.6.156-5.321.156-2.348.157-5.008.157-7.356.157h-.626c-65.732 3.445-128.334 19.731-184.832 46.51-1.566.626-3.131 1.096-4.696 1.566-.626.157-1.252.783-1.565 1.41C203.086 88.473 136.884 145.79 88.368 216.26c-.47.156-.94.469-1.252.939-1.879 2.819-3.6 5.794-5.165 8.613-35.057 53.244-60.098 113.691-72.462 178.367-.626 1.723-1.096 3.445-1.565 5.324-.157.627-.157 1.566.156 2.036C3.072 439.884.568 468.855.568 498.452c-.313.47-.47.94-.47 1.253 0 4.385.157 8.769.627 12.997 1.252 45.101 8.45 89.262 21.128 131.544l.47 3.289c.156.783.625 1.409 1.095 1.722 18.311 58.255 47.42 112.595 86.234 160.828.157.313.313.626.626 1.096l.626.626c10.956 13.625 22.693 26.466 35.057 38.994 93.59 93.646 217.856 145.324 349.946 145.794.469.626 1.095.783 1.878.783.782 0 1.565-.313 1.878-.783 93.433-.313 182.641-26.309 259.955-74.385 2.191-1.096 4.226-2.349 6.26-3.602.47-.156.783-.626 1.096-1.096 29.579-19.105 57.124-41.342 82.634-66.711 57.281-57.316 98.912-126.376 122.7-201.544.626-.47.939-1.096 1.096-1.722.156-.94.156-1.88.469-2.819 13.147-43.065 20.346-88.322 21.442-134.519.313-3.445.469-7.047.469-10.492.157-.313.157-.47 0-.783zM880.44 808.675c-.47.314-.783.783-1.252 1.097 1.878-2.976 3.443-5.951 5.164-8.927 0 1.097-.782 2.976-1.878 5.012-.625.939-1.408 1.879-2.034 2.818zM104.331 312.098c.313 2.819.626 5.481.626 5.481-2.817 11.589-6.417 21.298-6.886 25.213-.313 2.662-2.348 6.734-3.6 10.492-2.817-4.228-5.634-8.456-7.982-12.684 1.879-3.289 3.757-6.578 5.791-9.71 3.6-6.42 7.669-12.684 12.051-18.792zM259.271 98.34c.783-.313 1.722-.626 2.661-.94 2.191-.47 4.538-1.096 4.538-1.096-1.565 2.35-6.26 5.638-10.172 8.77.939-2.349 1.878-4.541 2.973-6.734zm83.104-41.969c-1.565.783-4.695.94-6.573 1.88-2.504 1.41-5.165-.157-7.356 4.541l-9.233 1.88s4.069-4.072 6.416-6.265c5.634-.783 11.112-1.41 16.746-2.035zm602.076 234.587c3.13 7.203-2.348 2.818-3.6-.47-1.252-3.445-5.008-8.143-7.669-8.926-1.095-.314-2.034-1.88-2.973-3.759-.157-3.132-.626-6.264-1.096-9.396.939.47 2.035 1.253 3.443 2.349 1.096.94 1.878 1.41 2.504 1.253 3.443 6.264 6.417 12.528 9.391 18.949zm37.091 118.076s.157-.314.157-1.41c.626 3.759 1.252 7.674 1.878 11.588-2.348-4.541-2.661-7.673-5.478-11.118.313-2.349.626-4.541.783-6.89 1.408 3.601 2.66 7.83 2.66 7.83zM613.755 891.36c-1.721 9.396-3.756 18.322-5.947 26.778-34.275 4.542-70.271 6.891-107.05 7.047V898.72c38.657-.156 76.531-2.662 112.997-7.36zm-91.086 1.566c1.565-1.566 4.069-2.819 6.26-3.132 1.409-3.915 1.566-3.602 3.913-5.011.626-2.976.939-3.289 2.661-4.698 1.878-2.976 3.756-8.613 6.886-10.336a117.264 117.264 0 0 1 3.443-5.011c-1.096-4.385.782-7.36 1.252-9.239.626-1.879.626-2.819.626-4.072 24.571-1.253 48.986-3.445 72.775-6.577-1.565 14.407-3.287 28.188-5.478 40.872-29.892 3.915-60.88 6.264-92.338 7.204zm102.511-48.702c38.657-5.325 76.062-13.155 110.962-23.021-2.817 14.877-6.573 28.815-10.955 41.969-32.866 9.396-68.08 16.913-105.328 21.924 2.191-12.998 3.912-26.778 5.321-40.872zm-354.328 18.948c-4.382-12.998-7.981-26.935-10.798-41.655l3.756.939c2.034 2.349 2.973 2.819 5.634 3.602 2.034.47 4.695 2.506 6.886 5.324 1.878 2.663 5.008 5.168 7.982 5.951 2.974.94 7.199 4.072 8.138 6.264.939 2.193 3.287 3.132 4.695 6.891 1.096 2.818 3.6 4.384 4.226 8.926.626 4.698 3.6 7.673 1.565 11.118-.156.157-.156.47-.313.627-10.799-2.349-21.441-5.011-31.771-7.987zM88.211 419.212c-.626-4.228-.47-14.876 1.722-17.852 2.19-2.975 1.878-10.492 1.878-10.492l2.19-7.204c-.156-4.228-.156-7.203.627-9.396.626-1.722.939-6.733 1.408-9.396 1.565 1.88 2.974 3.602 4.539 5.482-1.096 4.071-1.722 8.299-1.096 10.022 1.252 2.975 0 12.528 0 12.528v7.047c-1.095 2.819-1.095 2.975-.156 6.264 0 0-.626 2.819-3.13 5.481 0 0 .156 2.662.313 4.385 0 0-.157 4.071.626 6.89-.94 2.192.156 2.975.626 6.421.626 1.722 1.095 2.662.47 3.601-.314.627-.314 2.349 0 5.794-2.818-2.505-5.322-5.011-7.982-7.516-.94-.94-1.722-1.879-2.661-2.819a6.937 6.937 0 0 0 .939-1.566c.156-.47.156-3.445-.313-7.674zm279.205-331.99c.313 4.071 1.565 7.986 3.287 12.058-.157.156-.626.156-.783.313-1.095-1.566-1.878-2.819-3.286-1.253-1.722 1.879-5.009 1.566-5.009 1.566s-3.912.157-5.79 1.253c-1.878 1.096-5.165 1.723-5.791 1.253-.626-.47-2.347 0-4.069 1.879-1.565 2.036-4.382 5.324-4.382 5.324l2.034.157a5.956 5.956 0 0 1 2.661-.626c-4.539 1.879-9.234 4.071-13.772 6.107.939-3.445 1.878-7.204 2.191-10.962 0 0-5.635-2.036-8.765-4.072-3.286-1.879-3.286-1.096-6.886 0l-1.565.47s.156-.156.313-.156c18.155-6.108 35.057-10.493 49.612-13.311zm9.86 23.803c.939.626 1.409 1.566 2.504 1.566.626.626 1.096 1.253 1.565 1.722l1.409 1.41c-2.661 1.566-5.322 2.975-7.982 4.541-.157 0-.47.157-.47.313-.626.313-1.095.627-1.721 1.096-1.722-1.566-4.539-2.505-4.539-2.505s-.156-3.602-3.599-3.289c-3.444.47-6.887 1.566-8.765-.156-1.878-1.723-8.608-.157-8.608-.157-4.225 2.192-6.26 3.289-6.416 5.011 0 1.566-3.443 5.325-4.695 5.638-1.252.47-1.722 1.879-2.348 3.602-.626 1.722-1.878 5.794-1.878 5.794 5.634-.157 5.008.156 6.417 1.253 1.565 1.096 4.225 1.566 5.634 1.096.626-.157 1.252 0 1.565.313a57.896 57.896 0 0 0-3.913 2.662c-3.286-.313-11.425-1.409-15.65-1.879l-2.035-2.506c-2.034-2.505-.626-3.601 5.165-4.071 0 0 1.721-1.566 1.252-5.794-.157-1.097.156-2.819.626-4.542 8.764-4.071 17.529-7.986 26.449-11.745.313.157.626.157 1.096.627 1.095.783 3.443.626 4.539.313 1.095-.313 3.286.157 3.286.157.157-2.819.157-3.289 1.878-4.698.157-.157.626-.627.783-1.097 1.565-.626 2.973-1.252 4.538-1.879.783 1.41 1.878 2.662 2.817 4.072-3.13 2.192.157 2.192 1.096 3.132zm43.352 27.561c.939.627 1.878.47 2.817 0 2.034.627 4.069 1.566 6.104 2.036-2.348 2.819-4.695 5.638-7.043 8.613-.157-.157-.626-.626-.626-.94-.47-1.096-1.252-2.818-1.252-2.818s-2.974-1.566-3.756-1.41c-.626 1.879-3.287 5.168-.313 5.794 2.504.627 2.817-.156 3.599.94.157.157.626.47.783.626-.783 1.097-1.565 2.036-2.348 3.132-.939-1.252-2.973-2.662-5.164-3.601-.47-2.663 2.347-7.987 2.347-7.987s-4.069-1.723-6.573-2.819c0 0-1.565-1.096-3.13-.156-1.252.626-4.226.626-7.043.313 3.13-2.662 6.104-5.481 9.234-8.143 2.191 1.096 4.539 1.879 6.886 2.975 2.191 1.723 4.382 2.975 5.478 3.445zm-2.035 157.383c-.469-.47-.782-.94-.939-1.723 0 0 .626-.156 1.409-.156l-.47 1.879zm-11.112 53.087c-5.321 5.324-7.042 6.577-5.008 10.492.939-.47 2.035-.783 3.13-1.096-.156 1.096-.313 2.036-.626 3.132-1.095-.157-2.034-.313-3.13-.47-1.095-.939-2.347-2.975-3.286-2.662-1.252.47-9.234-5.011-11.582-4.385-2.347.627-3.912-5.794-3.912-5.794s-1.252-5.011.939-7.673c2.191-2.663-.47-4.229-7.043-5.951 0 0 5.634-2.662 8.608-1.41 2.973 1.253 3.912-4.384 2.973-6.577-.782-2.036-7.355-1.409-12.364 1.096-5.164 2.506-3.756.47-14.085 1.253 0 0 5.165-4.698 6.886-4.228 1.722.47 8.608-1.723 10.33-5.481 1.721-3.915 1.721-3.602 4.225-2.192 0 0 3.913 1.879 8.608.156 4.695-1.722 11.112 2.976 11.112 2.976s5.321.783 9.703 1.096c-1.721 9.083-3.599 18.322-5.478 27.718zM235.795 642.054c-5.477-3.915-6.886-5.638-8.607-8.613-1.722-2.976-.783-3.759-6.417-3.289-5.634.626-11.112.157-12.364.783-1.096.626-.939-1.566-3.287-4.072-2.347-2.662-3.599-6.733-5.947-8.769-2.347-2.192-2.504-2.506-2.191-4.228-2.348-2.976-2.661-5.481-2.661-5.481 2.661-3.915 1.409-3.915 1.722-7.047.47-3.289.47-5.168 1.878-8.613 1.565-3.445 2.035-9.083 2.035-9.083 1.878-2.819-.47-3.758 1.095-5.168 17.372 6.734 35.37 13.155 54.464 18.636-1.722 11.588-3.13 22.863-4.382 34.138-1.722.313-.783 1.096-.626 5.481 0 .157 0 .313-.157.627-.469.313-4.069 2.349-4.538 3.758-.313 1.566-6.574 1.409-10.017.94zm-67.923-131.387c-.469 2.975-3.443 7.047-3.443 7.047-1.565 7.516-7.512 6.733-7.512 6.733s.156.627.469 1.253c-.156-.313-.156-.626-.469-1.253-1.878-4.541-1.878-4.854-6.104-4.541-4.695.626-9.86-1.566-9.86-1.566-2.817-5.794-3.599-5.794-4.695-9.709-1.095-4.072-2.347-5.325-2.817-7.987 2.504-5.637 1.252-6.42.626-10.648-.626-4.385-.156-10.336-.156-10.336.939-2.349 1.565-4.228 1.878-5.794 11.424 7.36 23.945 14.407 36.935 20.984-1.252 4.541-2.504 8.926-3.6 13.468-.626.469-1.095 1.252-1.252 2.349zm-10.173 15.503c.313.783.47 1.253 0 0zm228.654-369.105c0 2.192.939 2.819 3.443 2.975 2.348.157 4.226 0 5.165 1.253.939 1.253 5.947 2.193 8.451 2.193 2.504 0 2.817.626 4.226 2.975l.156 2.819c-3.13 4.541-6.26 9.239-9.233 14.094-.157 0-.157 0-.47.156-1.565.157-2.66 1.566-1.095 1.096.156 0 .626-.156.782-.156-2.504 4.071-5.008 8.143-7.512 12.371l-2.191-1.096c-1.878-.626-1.565-.157-2.035.94-.626 1.096-2.347 2.349-4.225 2.505l1.878 2.819s.939 1.879 1.878 2.662c-2.348 4.072-4.539 7.987-6.73 12.372-1.096-1.097-2.348-2.036-3.13-2.663 0 0-5.634 5.951-7.356 8.144-1.408 1.722-2.191 3.601-2.504 6.264-14.085-4.542-27.232-9.396-39.126-15.347 6.73-7.987 13.616-15.817 20.658-23.334 1.096.314 2.192.783 3.6 1.566 0 0 3.756-2.975 3.756-8.456 0 0 5.791-2.036 7.825-4.385 1.879-2.349 8.921.783 10.173 3.445 1.252 2.506 5.165 2.506 7.356.47 2.191-2.192 4.226-4.071 6.886-5.011 2.504-.939 5.165-6.264 4.695-9.239a54.77 54.77 0 0 0-.782-5.168s-1.878-3.915-3.6-1.879c-1.565 2.192-6.729 2.819-10.173 1.566-1.095-.47-1.565-.627-2.191-.94 3.131-2.819 6.104-5.794 9.234-8.769-.782 2.035 2.191 2.192 2.191 3.758zm24.102 31.476-4.069 2.976s-4.069 1.879-6.26 2.505c-2.191.627-.157 2.819-.313 5.168 0 0-1.878-1.096-3.443-.156-.157.156-.313.156-.626.156a598.8 598.8 0 0 1 12.676-20.671c.313 1.723.783 4.855 2.035 10.022zm-13.772 54.341c5.321 1.096 10.642 2.348 16.12 3.288a34.159 34.159 0 0 1-2.035 1.879s-5.791 2.819-9.86 2.976c-4.069.156-3.443 2.192-12.364-2.193 0 0 4.539-3.445 6.574-3.445.782.157 1.252-.94 1.565-2.505zm-200.17 327.449c-.157-.47-.47-.94-.47-1.409 0-2.193-2.817-4.698-5.478-5.481-2.66-.783-4.695-.627-5.79-2.193-1.096-1.566 0-1.253-5.009-1.879-5.008-.626-7.981-2.036-8.764-3.288-.782-1.097-2.817-2.819-2.817-2.819 4.226-2.819 4.069-4.542 4.539-5.638.469-1.096.626-.939.626-.939 0-3.759-.47-4.698.626-7.047 1.095-2.349 1.565-5.325 1.565-5.325 1.408 1.879 2.817 4.072 2.817 4.072 2.035-.94 1.565-3.602 2.035-5.638.469-2.192 1.095-7.047 2.973-7.673 2.348-4.698 3.6-3.915 5.165-6.421 1.565-2.349 1.721-2.505-.47-5.168-2.034-2.662-1.565-5.011-6.729-5.011-4.226 0-4.696-.783-6.73-1.096.939-3.445 1.878-6.734 2.817-10.179a571.094 571.094 0 0 0 32.71 14.407c-1.879.783-4.539 2.349-6.73 4.228 0 0 3.912 1.097 5.634.314 1.722-.94 4.069-.627 7.043 1.879 2.973 2.505 5.79 2.819 8.607 4.385 2.818 1.409 5.635.783 5.948 3.915.469 2.975 8.764 5.95 11.581 7.516 2.817 1.566 1.409 2.193 2.191 5.481.939 3.446 7.512 6.421 9.234 6.891 0 0-3.13.156-6.886 3.602-3.756 3.445 3.912 2.035 8.138 1.252 2.348-.469 5.321.157 8.451.94-2.504 13.154-4.851 26.152-6.729 38.993-4.07-1.253-8.452-2.349-12.364-3.602-16.59-5.167-32.553-10.805-47.734-17.069zm67.766-23.177c-1.252-2.349-5.321-5.324-5.321-5.324s-8.764-10.179-11.425-11.432c-1.408-.626-5.634-4.541-9.703-8.456 9.703 3.288 19.563 6.577 29.736 9.552-1.096 5.325-2.035 10.493-3.287 15.66.157 0 .157 0 0 0zm4.382-20.984c-32.553-9.396-62.602-20.984-89.521-34.139 5.009-17.382 10.799-34.765 17.06-51.834 11.111 5.324 23.006 10.649 35.213 15.347.783 2.349 1.409 5.011 1.409 6.577 0 2.819-3.443 9.083-2.817 10.022.626.94 2.191 16.13 1.721 17.853-1.878 7.046.626 11.745 5.791 9.709 2.347-.94 3.286-2.662 3.913-6.891.626-4.384 2.973-.783 2.817-9.396-.157-6.733-.157-17.069 0-22.707a610.026 610.026 0 0 0 37.248 12.215c-4.695 17.696-9.077 35.548-12.834 53.244zm49.613-310.537c-4.226 5.168-8.452 10.649-12.677 15.973-1.409-1.566-3.13-2.035-7.669-1.096 0 0 5.165-6.577 6.417-8.926 1.252-2.349 2.504-3.445-.47-3.602 0 0 1.878-5.481 3.913-7.986 3.443 1.879 7.042 3.758 10.486 5.637zM216.389 441.919c.469.94.939 1.723 1.565 2.349-3.287-1.566-6.573-2.975-9.704-4.541 5.009-.157 4.696-4.385 8.139 2.192zm146.332-205.145c-2.817.94-3.443 1.096-9.077 1.879 0 0 1.721.314 3.599 3.446 1.878 3.131.783 1.879.47 6.733-.313 4.855-.626 3.289-1.878 11.432l-2.348 1.096s-6.26 3.915-12.051 5.168c0 0-3.756 1.723-6.729 2.975-2.974 1.253-1.565 6.421-2.348 10.179-.939 3.915-1.096 4.542 1.409 7.517-3.444 0-6.104 4.542-7.982 5.794 0 0 .469-.469-3.287-1.409-3.756-.94-2.817-7.83-4.069-9.396-1.252-1.723 1.252-7.36 1.878-9.396.626-2.036-1.721-8.143 6.26-13.154 0 0-5.477-5.012-8.451-5.325-2.974-.47-4.069-3.915-4.539-7.36-.313-2.819-2.817-7.047-4.851-10.649a842.912 842.912 0 0 1 14.711-18.478c12.677 6.264 26.763 11.745 41.787 16.443-.626 1.096-1.252 2.035-2.504 2.505zM244.716 454.917c.313-2.192.783-4.228.783-4.228 3.599-3.445 6.886-9.396 6.886-9.396 2.973-4.698 9.86-4.228 15.807-5.951 5.947-1.722 14.398-5.168 16.276-6.264 1.878-1.096 8.452-6.264 8.452-6.264 1.252-6.733 3.599-8.926 1.721-10.962-1.878-2.035-2.817-1.722-2.817-1.722 1.878-4.072 3.6-5.794 3.13-7.204-.469-1.253-3.13-7.203-3.13-7.203 2.817 2.349 4.069 2.975 4.226 4.228v.156c0-.313 0-1.566.626-2.662.782-1.566.626-2.036.782-3.915.157-1.879 1.565-2.349 3.287-2.819 1.721-.469 2.191-.626.626 1.253s-3.287 5.168-3.287 5.168-1.095 2.975-1.095 4.698c0 1.723-2.504 2.192-.47 3.915 2.191 1.723 2.817 2.506 4.069-.47.157-.313.157-.626.47-.939-.626 2.349-1.565 4.541-2.191 6.733-5.791 18.792-11.268 37.584-16.12 56.063-13.147-3.602-25.823-7.83-38.031-12.215zm7.043-12.684c-1.096 1.722-.626.939 0 0zm53.212-49.329c-.157-1.41-.157-2.662-.157-2.662.157.156.47.626.626.783-.156.783-.156 1.409-.469 1.879zm72.305-240.067c1.878-2.036 2.817-8.457 2.817-9.866 0-1.723 7.043-2.192 8.451-3.445 1.096-1.096 4.852-2.976 7.513-3.289-6.417 5.325-12.677 10.962-18.781 16.6zm-5.791 5.637.626-1.409s1.565-3.602 4.069-3.602c.157 0 .47-.156.783-.313-1.878 1.723-3.6 3.445-5.478 5.324zm-49.612 52.931c-3.13-1.566-5.947-3.132-8.764-4.698 1.408-1.879 2.817-4.541 5.008-7.047 0 0 4.069-.313 9.234-1.096 2.191-2.976 8.451-5.011 8.451-5.011s1.096-.157 2.348-.157c-5.635 5.638-11.112 11.745-16.277 18.009zM186.027 435.029c1.408 1.566 3.286 2.819 5.008 3.758a802.832 802.832 0 0 0-16.903 50.739c-13.616-6.891-26.136-14.094-38.03-21.768.156-2.818 3.286-6.107 3.286-6.107-1.252-3.915-1.095-3.915.626-5.168 1.565-1.253 6.886-7.203 6.886-7.203 1.565-5.325 2.505-7.517 3.6-11.589 1.096-4.071 1.096-7.986 6.26-6.89 5.165 1.096 16.277-1.723 12.834-3.445-2.348-1.097 3.286 1.096 7.042 2.505 2.974 1.88 6.104 3.446 9.391 5.168zm182.485 238.188c-1.722-.47-4.069-.313-5.009-1.566-.939-1.096-.782-4.072.627-6.734 0 0-7.669-5.324-9.234-5.324-1.565-.157-2.817-1.723-3.6-3.289-.782-1.566-1.095-.626-4.226-1.879-1.721.94-2.817 0-5.947-.47-3.286-.47-7.199-1.096-10.173-.626-1.565-1.566-5.79-4.542-7.981-5.481-2.191-1.096-3.287.313-5.791-.94-2.348-1.253-4.539-1.253-8.921-1.096-1.721-1.566-2.347-3.602-4.538-3.758-2.192-.157-5.165-4.229-7.043-6.734 0 0-2.817-1.566-5.008-1.253 1.095 2.506.156 3.289-.47 5.794-1.721.157-1.878.627-3.599 1.723-1.722 1.096-2.505 1.722-7.043.783-1.878-.783-1.878-3.602-2.191-4.542-.157-.939 4.069-10.335 5.321-12.684 1.252-2.349 2.817-1.723 1.095-2.976 0 0 0-1.566-3.13 1.567-2.973 2.975-8.764 1.879-12.99 5.167-3.599 2.662-7.981 2.036-11.894 1.88a1125.79 1125.79 0 0 1 4.226-32.103c34.587 9.709 71.522 17.382 110.336 22.707-.939 15.816-1.878 33.355-2.817 51.834zm-106.424-80.492a856.196 856.196 0 0 1 7.043-39.15c.626.157 1.565.313 2.191.47 0 0-.157-1.253-1.722-2.819 1.096-6.107 2.348-12.058 3.6-18.166 32.71 9.083 67.767 16.287 104.389 21.141-.939 8.926-1.878 18.009-2.661 26.935-.939 10.179-1.878 21.768-2.817 34.296-38.343-5.168-75.279-12.841-110.023-22.707zm12.051-64.989c3.913-17.852 8.138-35.861 12.677-53.557 30.519 8.456 63.228 15.19 97.346 19.731-2.347 18.166-4.538 36.488-6.417 54.967-36.152-5.011-71.053-12.058-103.606-21.141zm14.242-58.725c7.043-26.309 14.868-51.991 23.163-77.047.156-.156.313-.156.626-.313 2.191-.94 3.756-2.036 3.286-3.289-.469-1.252 0-4.071 0-4.071 2.348-1.566 7.826-3.602 8.608-3.445.783.156 1.878-.627 4.069.156 2.191.94 2.974 1.566 4.695.157 1.722-1.253 5.165 0 7.669.47 2.504.469 3.913.156 4.226-2.193-1.722 2.349-2.817.94-4.226-1.253-1.095-1.566-1.878-2.818-1.878-2.818 2.817-2.506 3.443-3.759 4.069-5.951.626-2.193 1.878-3.915 3.756-4.385 2.661-.47 6.104-.157 7.043-1.253 1.096-1.096 5.165-1.252 6.73-1.252 1.565 0 6.104-1.566 6.104-1.566v-.314c3.912.783 7.825 1.566 11.894 2.193-1.565.626-2.817 1.096-3.756 1.253-2.974.782-1.565 5.167-.939 8.612.626 3.446 4.695-1.879 7.199-5.794.939-1.409 2.348-2.349 4.069-2.818 6.26 1.096 12.677 2.035 19.25 2.975-7.042 38.523-13.616 79.552-19.093 121.678-33.805-4.698-66.202-11.432-96.564-19.732zm84.513-112.908c3.599-.47 7.512.47 11.425 2.036-3.913-.47-7.669-1.253-11.425-2.036zm45.543-81.432s3.599-5.951 1.878-8.456c-1.878-2.349-1.722-5.011.156-8.457l-4.069-1.722s1.565-3.289 2.817-5.481c.626-.94.626-2.193.47-3.445 3.443.626 6.886 1.096 10.486 1.722-2.348 9.083-4.852 18.636-7.043 28.345-1.565-.783-3.13-1.723-4.695-2.506zm-20.815-37.27c.156-1.566.626-3.132.939-4.698 0 0-4.226-.94-6.887-2.349-2.504-1.566-2.034-7.047-2.034-9.24 0-2.036-1.565-2.975-4.539-1.722-.156.156-.626.156-.939.156 2.348-4.228 4.539-8.456 6.886-12.371 1.565.626 2.817 1.409 3.6 1.722 1.722.94 2.974 5.012 3.6 6.264.626 1.253.626 2.663 2.66 3.915 1.878 1.097 4.539 4.542 5.791 4.698 1.252.157 2.504 1.097 5.947 5.168.47.783 5.791 0 8.138-2.975 0 0 2.191-2.976 1.878-5.011-.469-1.88 2.817-5.795 3.287-8.613 0 0-4.226-2.976-5.321-3.289-1.096-.47-.626-2.349 0-2.819.626-.626.469-5.951 0-8.769 0 0 1.252.626 4.539 0l2.347 4.541s2.348 4.228 2.974 6.421c.626 2.192 1.565 1.722 3.286.156 1.722-1.566 4.382-4.541 5.947-4.541 1.722 0 2.505-.783 3.6-4.228 0 0-3.287-2.663-5.321-3.915-2.191-1.253-2.348-4.072-2.348-4.072s-1.095-11.119-.626-13.937c.47-2.819-.782-4.228-1.252-5.011-.469-.627-3.286-6.421-4.069-8.77-.782-2.036-4.538-4.855-6.73-6.264 4.226-5.638 8.452-10.962 12.521-15.503a237.325 237.325 0 0 0 30.049 5.95c-11.112 20.985-22.693 54.027-33.805 95.213-12.051-1.41-23.32-3.602-34.118-6.107zm22.849-40.403c-.313-1.253-.156-.627 0 0zm-17.372-67.181c-1.565 1.409-3.286 2.818-4.851 4.228-.626-1.41-2.035-2.976-3.913-4.072-3.443-1.722-4.695 1.253-5.947 3.289-1.252 2.192-5.321 4.385-7.043 7.047-1.721 2.505-3.756-.627-7.669 3.758-.939 1.723-2.66 2.349-7.512 4.072 0 0-.156 2.819 2.035 6.264 0 0-2.974 1.566-3.913 3.602-.939 2.192-7.982 3.288-13.303 6.264 1.878-8.3-5.634-11.745-10.955-11.745 0 0-.783-2.036-1.096-3.602l8.921-6.108c.626.157 1.252.627 2.035 1.097 1.721 1.096 5.79.939 5.79.939-.156-2.192.157-3.602 1.878-5.011 1.252-.94 2.035-3.289 2.348-4.698a481.408 481.408 0 0 1 26.919-15.817c5.008 3.915 10.329 7.517 16.276 10.493zM103.549 362.21c-.313.47-.627 1.096-1.096 1.88-1.565-1.723-2.974-3.602-4.382-5.325 2.347-5.481 5.634-14.094 5.634-14.094 3.13 4.228 1.878 14.094-.156 17.539zm-8.608 112.909c.939 1.252.156.469.156.469s-.156 3.446 1.096 4.542c1.252 1.096 1.095 3.758 1.721 6.42.626 2.663 2.348 5.168 3.287 6.734.782 1.566 2.035 5.951 4.695 8.613 2.504 2.662 3.913 7.517 5.791 10.336 1.878 2.818 4.069 5.324 4.695 7.516.626 2.193 2.191 4.072 2.817 5.325.626 1.253 5.478 5.794 6.886 7.517 1.252 1.722 1.252 2.505 7.826.783l7.512 7.516s.782 1.88 1.565 4.072c-21.441-12.058-40.692-25.213-56.968-39.15 2.504-10.492 5.634-20.671 8.92-30.693zm65.888 95.212c2.035 2.036 4.07 4.385 4.852 5.638 1.252 2.192 2.035 1.409 5.791 1.096 0 0 6.886 18.948 9.703 24.429 0 0 .313 5.795-.313 7.987-.626 2.349 2.348 3.602 3.443 5.011 1.096 1.253 1.096-.156 1.409-3.132 0 0 4.225 3.602 4.225 6.264 0 2.662 5.008 9.239 6.261 11.432 1.252 2.192 5.008 3.915 7.042 5.011 2.191 1.096 3.6 1.723 4.069 2.975.47 1.253 1.565 2.819 1.878 3.602.47.94 1.879 1.566 3.913 5.011.626-.156 3.287-.939 3.13-1.409-.156-.47.157-3.602-2.034-5.794 0 0 0 .156 1.252-.627 1.252-.939 4.695-1.879 7.668-3.132 0 0 5.322 3.759 7.043 6.264 1.722 2.506 1.565 1.566.157 2.506-1.252 1.096-.313 3.602 1.565 7.517 2.817 7.517 3.286 6.734 2.817 10.492-.47 3.915-3.6 14.251-.783 17.383 2.817 3.288 5.321 2.818 5.321 2.818-4.695 5.638-5.164 7.517-7.668 5.794-2.504-1.566-5.791-1.096-7.043 3.602-1.252 4.542-4.852 5.794-7.669 5.794-1.565 0-2.817.627-3.756 1.566-21.911-7.673-42.413-16.286-61.506-25.682-.313-33.199 3.13-67.494 9.233-102.416zm50.082 133.423c-.939 1.566-2.974 2.036-2.348 4.698.626 3.445.313 9.239.313 9.239 3.757 3.759 4.07 5.168 3.6 7.36-.469 2.349-.156 4.698-3.6 4.698-3.443 0-4.538 2.193-2.973 4.698 1.565 2.506-.157 6.108 2.66 9.24 2.818 3.132 11.895 12.214 13.616 15.66 5.635 7.203 5.635 7.986 5.948 11.431.469 3.446 1.252 3.602 3.756 7.517 2.66 3.915 5.008 5.794 5.008 9.24 0 3.445 1.878 5.794 4.225 8.456 2.348 2.506 5.165 7.047 5.165 9.709 0 1.409 2.817 4.542 5.791 7.674.156.156.156.156.469.313-33.022-9.866-63.541-21.611-90.616-35.079-6.26-27.405-10.173-57.315-10.799-89.575-.156-3.288 0-6.733-.156-10.178 18.78 9.239 38.813 17.382 59.941 24.899zm236.636 51.678c-1.878-1.88-1.252-3.289-1.565-5.012-.157-.939-2.191-1.566-1.878-2.818 2.347.156 4.538.156 7.042.313-.156.156-.156.47-.156.626-1.409 7.36-1.252 3.289-3.443 6.891zm2.034-13.155c1.722-2.349 4.852-6.264 6.887-7.986 2.973-2.506-1.722-3.915-3.444-6.108-1.721-2.192-2.817-4.698-3.599-8.143-1.096-3.602-6.573-5.637-8.608-6.734-2.035-1.096-2.191-1.566-7.669-4.698-1.252-2.192-3.912-5.794-13.303-7.83-2.973-3.445-5.79-2.349-8.138-2.818-2.348-.627-6.73.156-9.86-.47-3.286-.627-5.947-.157-8.607 0 0 0-6.73-3.445-6.73-8.143s-4.539-6.891-6.417-8.144c-1.878-1.252-3.756-4.071-5.478-5.48-.313-.314-.939-.627-1.408-.94.782-17.539 1.878-35.235 3.13-53.087 38.344 5.011 78.252 7.673 119.257 7.83v114.161a1103.627 1103.627 0 0 1-46.013-1.41zm-73.088-126.062c1.565-20.358 3.287-40.716 5.478-61.387 36.466 4.698 74.497 7.203 113.31 7.36v62.013c-40.379-.156-80.287-2.975-118.788-7.986zm5.948-66.868c1.878-18.322 4.069-36.645 6.416-54.81 34.275 4.385 69.958 6.734 106.424 6.89v55.28c-38.657-.157-76.531-2.506-112.84-7.36zm7.199-60.291c5.478-42.125 11.894-83.154 19.25-121.678 27.858 3.602 56.811 5.481 86.547 5.638v122.93c-36.309 0-71.836-2.349-105.797-6.89zm20.189-127.002c.313-1.723.626-3.289.939-5.011 0-.157 0-.157.157-.157.156-.157.156-.157 0-.47 2.347-11.901 4.538-23.646 7.042-35.235h.157c1.878-.626 7.512-3.602 9.234-6.734 1.721-2.975 5.79-2.349 9.703-.626 3.913 1.723 5.321-6.421 5.947-9.396.626-2.975.313-6.42-2.347-8.613-2.818-2.192-3.287-3.288-7.043-2.975-3.756.156-6.26 3.445-9.234 3.915-.313.156-.626 0-1.096.156.314-1.409.626-2.818.939-4.071.94-.157 1.879-.627 2.348-.94 2.661-1.253 4.695-3.288 12.52-1.879 0 0-3.912-1.879-7.355-5.011-1.565-1.41-2.974-2.819-4.695-4.542 2.66-10.805 5.164-21.297 7.981-31.32 19.407 2.506 39.596 3.915 60.411 4.072v114.161c-29.423.157-58.22-1.879-85.608-5.324zm26.606-117.763c11.268-41.186 23.006-74.228 34.588-95.056h.625c1.096 4.072.157 5.794 2.818 11.902 0 0-2.035 3.288-2.661 6.733-.626 3.446 1.252 3.915 8.451 3.602 0 2.976 2.661 8.456 2.348 14.407 0 0-7.199 4.542-9.234 5.325-1.878.939-2.504 5.011-3.287 8.456-.626 3.445-1.408 5.794-1.095 6.107.313.314 2.817 7.204 2.348 10.179-.47 2.976 0 6.734 3.912 10.962 3.913 4.229 3.443 7.204 4.539 10.336 1.095 2.975 5.008 4.698 6.73 5.951 1.095.783 4.538 2.819 7.981 5.011-19.876-.313-39.439-1.566-58.063-3.915zm22.38-223.937c-8.608 1.409-16.746 3.288-24.571 5.324-5.008-2.036-9.86-3.758-14.868-5.168 2.504-.94 3.443-.783 5.791.157 2.973 1.253 8.764-.94 10.485-.94 1.722 0 4.696-3.288 9.391-2.349 2.504.47 6.729.313 10.329 0a29.139 29.139 0 0 0 3.443 2.976zm3.913-4.385c2.191-1.723 14.085.47 18.78-.627 4.695-1.096 24.728-.313 27.858-2.818 2.974 2.662 11.112 5.48 13.303 6.264-7.982-.783-16.12-1.253-24.415-1.253-11.268 0-22.223.626-32.553 2.036-1.252-1.253-2.347-2.35-3.443-3.289 0-.157.313-.313.47-.313zM845.07 672.747c-28.484 14.094-60.411 26.309-94.999 36.488-.469-24.743-2.347-50.582-5.321-77.204 2.661 1.879 6.26 3.759 8.764 5.325 4.069 2.662 3.913 5.167 6.104 10.962 0 0 7.825 2.818 10.955 3.758 1.096.313 9.234 3.289 12.364 7.047 2.974 3.915 13.147 2.819 16.12 3.288 2.974.47 5.165-.469 6.886-2.975 1.722-2.505 5.635-5.951 7.826-5.481 2.191.47 4.695-1.253 10.955-6.264 3.287-2.662 4.539-5.324 10.955-2.662 1.096-.626 4.226-4.072 7.669-7.987 1.096 12.059 1.565 23.96 1.722 35.705zm-220.986-56.845c-.939-12.685-1.878-24.43-2.817-34.766-.782-8.926-1.721-17.852-2.66-26.935 35.057-4.698 68.549-11.431 100.007-20.044-.47 3.288-1.096 7.986-2.505 15.033 2.974 2.036 5.948 8.613 10.33 19.262-1.409 7.83-1.878 15.973-.157 23.177-1.408 1.409-2.347 2.818-3.599 4.541-30.988 8.456-64.011 15.034-98.599 19.732zm73.245-401.208c7.199 1.722 10.955 2.192 8.921-2.663-2.191-4.698-.47-5.637-1.878-9.396-.626-1.409-.626-2.192-.626-2.818.156-.157.469-.314.626-.47.469 0 1.095.156 1.721.626 4.226 0 5.321 2.349 7.669 4.698 2.347 2.349 13.303 6.734 14.555 10.492 1.252 3.602 7.199 10.806 8.295 10.023 1.095-.783-3.6-1.879-.313-4.072 1.565-1.096 1.878-2.819 1.721-4.071 3.6 3.601 7.043 7.047 10.643 10.805-3.6-1.566-7.356-2.349-10.173-.47-2.974 2.036-7.043 3.445-7.043 3.445-2.817-1.722-5.478-3.288-5.634-7.203 0-4.072 1.095-4.072-1.565-4.072-2.661 0-2.661-.156-2.661-.156l-5.478-7.517c-1.565 5.324-2.504 9.083.94 10.805 3.443 1.723 10.016 6.891 10.798 10.179.783 3.289 4.539 14.094 4.539 14.094-2.974 1.879-5.165 2.975-4.069 7.517 1.095 4.541 2.661 12.684-.47 17.539-2.973 5.011-.626 4.072-.156 7.204.156 1.566.313 3.601 0 5.167-1.878-2.818-3.6-5.637-5.478-8.456a65.358 65.358 0 0 1 1.409-1.096c-2.348-3.445-4.069-10.492-4.539-11.589-1.721.157-3.443.47-4.852.627-11.581-16.6-23.788-32.573-36.465-48.076 4.538-2.349 8.921-5.011 13.146-7.517a210.4 210.4 0 0 1 6.417 6.421zm200.326 67.651c2.817 2.192 6.887 11.901 7.982 14.563 1.096 2.663 4.539 10.179 8.764 19.575 0 0-2.347 5.325-4.851 7.674-.626.626-1.096 1.722-1.409 2.975-6.729-10.649-13.616-21.141-20.971-31.32 2.347-3.445 5.477-10.962 8.138-15.973 0 .313.313.94 2.347 2.506zm-158.539-72.036c-.157-.627-.783-1.566-1.878-2.349-1.252-1.096-3.6-2.819-5.791-5.011-1.722-1.566-3.443-3.289-5.321-5.012-1.096-1.096-1.878-2.192-1.878-2.818-.157-2.193 3.286-9.553-1.096-11.745-.156 0-.156 0-.156-.157 6.573-6.734 11.894-13.467 16.12-20.514.156.156.313.156.626.313.626 1.879.782 3.602-.47 3.602-2.191 0-7.199 7.986-5.008 9.709 2.348 1.879 3.756 3.445 6.26 4.071 2.348.627 5.947 3.602 8.452 4.698 2.347 1.096 3.286 2.349-1.565 1.723-2.348-.313-6.73.47-4.852 2.192 1.095 1.096 3.13 4.228 5.321 5.168 2.348.94 4.226 2.506 5.165 4.228.782 1.723 4.225 5.481 4.225 6.891 0 1.252.626 8.769.626 8.769-2.347-1.566-6.26.157-6.26 2.506-.156.939-.313 2.975-.626 5.011-4.069-3.445-7.982-7.36-11.894-11.275zm89.834 14.25c1.721 2.193 3.443 3.759 7.042 1.097.157 1.409 1.096 3.132 2.818 4.541l-2.348 5.638c-2.348-2.506-5.008-5.012-7.512-7.361v-3.915zm9.86-1.096c-2.974-.156-1.565-3.288-4.07-6.42-2.504-3.132-1.095-9.24-1.721-16.13.469 0 6.417 7.517 10.016 17.069a45.402 45.402 0 0 1-1.878 6.108c-.626-.314-1.252-.627-2.347-.627zm18.937 44.005c1.095 1.252 2.034 2.662 3.286 3.915-.156 3.288-.939 8.456-2.817 12.371 0 0-.156 0 1.722 2.192 1.878 2.193 5.008 5.951 7.042 9.396 2.035 3.446 4.539 3.289 10.643 7.517 0 0-.157 0 .626-2.819.469-1.566 1.565-2.349 2.973-2.662 7.982 10.962 15.807 22.081 22.85 33.512 1.252 1.88 2.348 4.072 3.6 5.951v1.723s-8.138 4.854-9.86 6.264c-1.722 1.566-8.764 2.349-11.895 2.505-2.973.157-5.321 2.193-7.042 6.734 0 0-.157 4.072-.157 6.734.157 2.505 3.756 8.456 5.478 10.649.626.939.939 1.566.626 2.349-1.096 1.096-2.191 2.349-3.287 3.601-2.347.314-9.703 1.41-13.929 2.349 0 0-1.565-1.409-2.973-2.818-7.043-13.155-14.555-26.152-22.693-38.994 0-.783-.157-1.566-.783-2.035-.156-.157-.626-.627-1.095-.94-4.07-6.421-8.452-12.685-12.677-19.105l1.095.156c1.565 1.253 6.417 4.229 7.199 8.613.939 4.229 4.696 5.481 4.696 5.481s-2.348-8.769-1.722-10.962c.626-2.192-5.165-5.324-7.512-8.299-2.348-2.976 3.443-1.723 7.199-1.097l-1.095-2.348s2.347-1.567-4.07-.627c-2.817.313-8.764-1.253-14.398-3.132-3.6-5.168-7.512-10.179-11.425-15.347 6.26 1.723 16.12 3.759 23.319 4.698 0 0 2.348 2.819 3.756 5.168 1.565 2.349 3.913 4.072 6.417 5.794 2.504 1.88 7.512 4.228 10.173 5.951 2.504 1.723 2.817 1.879 5.321-.626 0 0-.156 2.662 0 6.264 1.565.783 8.451 4.071 10.329 5.481 1.878 1.252 1.096-1.88-.626-7.047-1.878-5.325-3.599-2.976-6.729-3.915-2.974-.783.469-3.446 2.66-2.976 2.035.47 2.348-1.096 0-3.601-2.347-2.506-3.912-.314-7.512-.314l1.096-3.758c1.565-2.819-4.226-9.709-5.791-13.624-1.565-3.915 4.382-5.638 7.512-5.168 3.13.626.157-7.987.313-11.432.157-3.445-5.008-1.096-6.573-2.819-1.565-1.566-11.268-14.877-12.207-18.322-.157-.783-.627-1.722-1.096-2.819 6.573 6.891 12.99 14.094 19.094 21.298 0 .626.156.783.939.94zM746.315 463.843l-6.26 11.276s-7.512 7.986-9.391 12.684c-1.878 4.698-4.695 9.709-5.634 14.407-.313 2.036-.626 5.325-1.095 8.77-2.817-12.685-5.947-25.526-9.234-38.367a524.074 524.074 0 0 0 31.301-10.179c.157.47.157.94.313 1.409zm63.698-163.489c-2.818-1.097-4.852-1.88-4.852-1.88s-8.451-2.349-10.173-6.42c1.878-1.566 3.756-2.819 5.634-4.385l9.391 12.685zm-42.1 53.243c-.313-2.192-.626-4.071.313-6.264 1.565-2.975 5.477-10.648 5.477-10.648-2.347-5.795-4.069-10.179-5.321-11.902 3.6-1.566 6.417-4.541 6.417-4.541 3.913-.314 5.947-1.097 6.417-4.542.469-3.445 3.286-12.371 3.286-12.371 1.878-.783 5.321-1.879 6.887-.313 1.565 1.566 7.825 5.324 9.39 7.047 1.565 1.722 4.695 1.879 4.695 1.879l5.321.156s2.817 2.193 5.791 1.566c1.095-.156 2.191-.156 3.13.157 4.539 6.577 9.077 13.154 13.303 19.888-.313.627-.783 1.096-1.096 1.566-1.095 1.879-2.347 1.879-2.973 3.289-.626 1.253.939 3.445 2.973 2.192 1.409-.939 3.6-.156 5.634.157 7.043 11.275 13.773 22.707 20.033 34.138-3.756 1.097-9.077 3.132-10.799 3.602-2.504.783-7.355 2.193-12.051-.939 0 0-.469-7.204-.156-9.71.156-2.662-.157-4.071-3.6-6.733-3.599-2.506-2.973-.157-4.382-10.336-.939 2.976-3.6 2.819-6.573 1.723 0 0 .469.47-1.096 2.819s-4.538 6.42-7.981 7.203c-3.443.94-11.425 8.613-19.563 14.564-4.07 2.975-6.417 5.794-7.982 8.456-5.008-10.649-10.173-21.454-15.494-32.103zm28.797-69.686c-1.409 1.096-2.817 2.349-4.382 3.288.156-1.096 1.095-2.192 2.66-3.915.157 0 .626.313 1.722.627zm-51.021 51.834c-2.974-.94-7.982 3.289-17.998 6.107-3.913-.469-7.982 2.349-9.86 2.819-1.878.47-3.287 1.879-3.287 1.879s-4.538 7.361-1.878 9.24c2.818 1.879 4.696 5.637 5.322 7.673.626 2.193 4.538 16.286 4.538 18.322 0 1.879-.156 5.168 2.504 5.168 2.661 0 3.6 1.253 4.539 3.445.783 2.036 2.817 9.24 2.817 9.24 3.287-1.566 9.86-7.361 12.677-4.542 2.348 2.349 9.703 5.325 9.703 5.325 2.035-1.253 2.035-3.915 2.035-3.915s-.47-3.446 5.165-5.012c5.477-1.566 8.294-4.541 8.294-4.541 1.565-2.349 2.661-7.047 3.287-10.649 2.347 5.168 4.852 10.336 7.043 15.66-.157.157-.157.627-.313.783-2.191 4.542-5.009 7.047-8.921 9.396-4.069 2.349-8.138 3.289-12.834 2.193-4.695-1.097-5.477 5.167-5.164 12.371.313 7.204-3.913 11.588-6.417 14.094-2.504 2.505-2.348 6.42-2.348 8.613 0 1.722-.939 8.769.626 17.069-10.172 3.602-20.658 7.047-31.457 10.179-5.008-18.479-10.173-37.114-16.12-55.906-6.73-21.141-13.616-41.969-21.128-62.013 23.632-6.891 45.543-15.19 65.575-24.743.939 4.855 2.504 9.083 3.6 11.745zm-38.187 132.953c-30.206 8.456-62.602 15.034-96.72 19.731-5.478-42.125-11.895-83.154-18.938-121.677 27.389-3.602 53.682-9.083 78.253-15.973 13.929 37.427 26.606 77.203 37.405 117.919zm1.408 5.481c4.226 16.286 8.139 32.729 11.895 49.172-.939 1.566-1.096 2.662-1.565 4.698a746.824 746.824 0 0 1-101.259 20.515c-1.878-18.322-4.069-36.645-6.417-54.654 34.118-4.541 66.828-11.118 97.346-19.731zm157.757-230.358c-.469.157-1.878 1.409-5.79-1.096l-.939 5.011s-.157 5.951.782 9.866c.626 2.349.783 3.602.157 5.011-6.573-7.673-13.303-15.347-20.346-22.707 1.252-2.506 2.348-5.168 3.6-7.83 2.347.157 1.878-.939.939-2.349 1.252-3.288 2.347-6.734 3.286-10.022 3.287-.157 7.669-.157 10.956-.627 5.947-.626 3.912.157 9.233 6.108.157 1.409-.626 7.36 1.722 15.033-.156.157-3.13 3.289-3.6 3.602zm-132.246-83.624c-1.409 2.349-2.817 4.698-4.539 7.047.157-1.096.156-1.879.469-2.819.626-2.662.47-5.324.47-5.324.47 0 1.096-.157 1.565-.157.783.313 1.409.783 2.035 1.253zm-47.108-16.6c5.477 1.097 7.042-1.566 11.581 6.734 4.539 8.457 7.669 12.372 13.146 16.6 5.322 4.228 6.73 6.734 10.956 7.36.469.157.782.157 1.252.157-2.191 2.349-4.539 4.854-7.043 7.203-1.878-.313-3.13-.47-3.13-.47a5080.544 5080.544 0 0 1-14.085-13.154c-1.566-6.421-1.879-10.962-5.165-13.468-3.13-2.035-11.738-5.794-7.512-10.962zm10.955 107.428c-1.096-.627-2.191-1.097-3.6-2.036-2.817-1.723-6.886-1.879-6.886-1.879l-4.069-.157c1.095-5.011-1.878-13.154-3.443-13.311-3.6.157-6.26 3.602-7.512 2.506l-1.096-6.264-5.791 5.011s2.348 6.107 3.444 8.456c1.095 2.349 5.947 7.517 7.042 9.866 1.096 2.349 2.191 2.506 4.382 1.723 2.035-.94 5.009-1.723 8.921-.157.313 1.096-.156 3.289 1.096 4.228 1.095 1.096 3.912 3.289 5.164 5.011 1.252 1.723 2.348 2.976 2.348 4.542 0 1.566-1.096 5.324-2.504 6.734-1.565 1.566-.626 4.071.782 4.698 0 0 2.191-1.723 3.287-2.976 1.095-1.253 1.096 1.566 3.443 2.349 2.348.783.47 2.819.47 5.325 0 2.505.469 3.288-1.252 5.794 1.565.156 3.443-1.253 5.164-1.879 1.722-.627 4.539-2.036 5.165-4.229.626-1.879 2.661-5.011 5.008-5.95 1.878 2.975 4.069 5.95 5.947 8.769-2.347.627-5.164 1.566-5.164 1.566s2.66 2.819 6.573 7.204c0 0-9.703 1.879-11.269 5.324-1.565 3.289.47 4.542 4.696 6.264 1.721-1.722 4.538-.156 11.737-.939-.469 5.95 3.287 4.541 6.887 5.324.156.626 1.408 3.602 2.817 7.203-19.72 9.396-41.631 17.696-65.576 24.743-14.711-39.306-30.675-75.951-47.108-108.21 16.59-5.011 32.084-10.962 46.013-17.696 8.294 10.806 16.589 21.767 24.884 33.043zm-30.206 94.586c-24.101 6.734-50.081 12.058-77.313 15.816-7.669-41.185-16.12-79.239-24.728-112.438a417.597 417.597 0 0 0 55.09-11.432c16.276 31.79 32.24 68.434 46.951 108.054zm-81.852 16.443c-27.388 3.601-55.872 5.324-85.452 5.481V253.374c20.659-.157 40.848-1.566 60.255-4.072 8.921 33.356 17.372 71.566 25.197 112.752zm1.096 5.324c7.043 38.68 13.616 79.553 19.25 121.678-33.805 4.385-69.175 6.734-105.641 6.89v-122.93c29.579-.157 58.533-1.879 86.391-5.638zm19.876 127.159c2.348 18.165 4.539 36.488 6.417 54.81-35.997 4.698-73.871 7.203-112.841 7.36v-55.28c36.623-.156 72.149-2.505 106.424-6.89zm6.886 60.291c2.035 20.514 4.069 41.185 5.478 61.7-38.031 5.011-77.783 7.517-118.788 7.673v-62.013c38.97-.157 77.001-2.662 113.31-7.36zm240.705 69.686c4.069-3.915 8.921-6.577 17.059-11.744 0 0 7.043 4.228 11.894 10.022 0 0 5.635-3.602 6.887-6.734 1.252-2.975 4.538-4.541 10.955-3.288l1.096 13.78s-.313 8.77-.626 9.553c-.157.156 0 1.409-.157 3.132-15.494 10.962-32.709 21.297-51.49 30.85a551.358 551.358 0 0 0-1.878-38.837c2.504-2.818 4.852-5.481 6.26-6.734zm74.027-287.36c7.356 5.795 7.982 6.734 14.398 9.24 5.948 2.349 6.417 5.481 7.043 7.203-.939 4.542-2.034 8.927-3.443 13.468a29.9 29.9 0 0 1-2.347-3.289c-2.505-4.228-7.982-10.179-11.425-13.937-3.287-3.758-11.112-14.877-13.303-17.069 9.39 8.143 10.016 6.89 9.077 4.384zM650.377 50.577c.157-1.252 1.878-1.879 5.478-.626 1.252.47 2.504 1.096 3.6 1.566-3.13-.47-6.104-.627-9.078-.94zm-88.268-26.465 2.973.47c-1.095.47-2.034.626-3.13 1.096-6.417-1.88-13.146-3.289-20.189-4.541 7.512.626 15.963 4.228 20.346 2.975zm50.394 21.924c2.817 1.096 8.608-2.662 8.608-2.662 1.565 2.192-.626 5.324 6.26 5.794 1.096.157 2.191.157 2.974.313-6.573 0-12.834.157-19.25.627-2.974-2.663-6.574-5.168-10.173-7.517 4.382.783 9.234 2.505 11.581 3.445zm25.354 9.24c1.096.156 2.348.156 4.069.156a342.522 342.522 0 0 1 30.519 3.288c3.599 2.35 4.538 5.795-.626 4.385-5.948-1.722-13.773-.626-17.999-3.288-4.225-2.506-16.276-1.88-16.276-1.88l-8.608-2.662c0 3.132 3.287 5.011 7.982 5.011s17.528 6.734 18.781 9.71c-10.956-2.036-21.755-3.602-32.084-4.855-1.878-3.289-4.382-6.734-7.199-9.866a244.744 244.744 0 0 1 21.441 0zm14.398 19.73c-.626.157-1.408.157-2.191.47-2.504.784-7.042-1.096-10.955-2.662 4.226.47 8.608 1.41 13.146 2.193zm-20.971-.312c4.225 2.975 5.321 4.071 8.294 2.818 0 0 6.104 2.35 9.078 4.698 2.973 2.35 2.973.627 5.634-1.879 4.695 1.723 9.39 1.566 5.478-1.879-1.252-1.41-2.348-2.192-3.443-2.819 3.13.627 6.103 1.096 9.233 1.88 2.661 2.348 12.834 10.492 14.868 11.901 2.035 1.41 4.383 7.517 8.295 7.517 2.348 0 4.539 2.192 5.008 3.445-24.258-9.24-46.482-15.347-65.106-18.792-.156-3.289-.939-6.577-2.034-9.71 2.191 1.097 3.912 1.88 4.695 2.82zm-2.504 12.528c15.181 2.818 32.553 7.516 51.49 14.25-.626 1.566-.157 2.662 1.565 2.506 2.504-.157 10.642 3.288 12.833 2.819h.157c.782.313 1.721.626 2.504 1.096 1.878 1.253 3.6 3.445 1.565 3.132-2.974-.627-1.878 3.602 0 4.228 1.878.626 8.764 8.926 10.642 9.396 1.878.47 6.261 3.915 6.261 3.915l-6.887 2.819c-6.103-2.976-17.685-4.542-21.91-5.481 3.756-2.506 10.485-3.759 9.546-6.264-.939-2.662-2.504-3.132-4.225-6.421-1.722-3.445-6.26-4.228-10.486-2.505-4.226 1.722-15.338 4.071-15.338 4.071-.313.627-.626 1.409-.939 1.879-12.99-5.95-26.292-11.745-39.908-16.913 1.565-4.384 2.66-8.456 3.13-12.527zm26.293 30.223c.939 3.602 1.565 11.902-.157 15.19-1.878 3.602.469 1.253 1.565 5.481.313 1.253 1.096 3.289 1.878 5.325-14.868-10.179-30.049-19.575-45.073-27.875.469-.47 1.095-.939 1.565-1.409a59.542 59.542 0 0 0 8.138-10.179c10.799 4.385 21.441 8.769 32.084 13.467zm8.92 36.801c1.409 2.193 2.817 4.072 4.226 5.325 4.852 4.541 5.791 10.179 6.26 14.407.47 4.228 5.791 25.212 11.112 29.597.313.313.783.626 1.096 1.096-4.07 2.349-8.139 4.698-12.521 6.891-25.197-29.911-52.429-57.159-81.383-81.432 5.948-3.289 11.269-6.734 15.964-10.492 18.781 9.865 37.092 21.454 55.246 34.608zm5.322 59.665c-13.616 6.42-28.641 12.214-44.917 17.069-5.322-10.179-10.643-20.045-15.964-29.128.939-2.192 2.348-3.601-2.974-6.42-.469-.157-.782-.313-1.095-.627-12.677-21.297-25.354-39.463-37.718-53.87 7.512-2.349 14.712-5.011 21.285-8.143 28.797 23.96 56.029 51.208 81.383 81.119zm-73.245-21.924c-1.095.156-1.721 1.096-1.721 2.818-10.799 2.349-11.582 7.361-15.025 4.855-3.443-2.506-6.26-4.855-7.512.626-1.252 5.325-1.096 5.325-1.096 5.325 5.008-.157 7.513 5.011 11.738 4.071 0 0-2.191 6.264 2.504 5.795 4.695-.47 6.417-.47 10.33-2.349 3.912-1.88 5.321-5.168 8.451-5.168.626 0 1.095-.157 1.565-.157a725.8 725.8 0 0 1 13.616 25.056c-16.903 4.698-35.057 8.456-53.994 10.962-5.322-19.418-10.643-36.957-15.964-52.461 1.096-1.096 2.035-1.879 2.035-1.879s8.764-10.962 10.329-13.311c1.565-2.349.626-3.915-3.287-2.192-3.756 1.722-9.233 4.071-10.642.626-1.252-3.445-1.878-7.986-2.661-8.926 3.287-.157 4.383 0 5.791 1.723 1.252 1.722 5.947 2.505 8.138 2.192 2.191-.47 6.73 2.506 4.226-.47-2.504-2.975-1.096-4.071-3.756-5.481-2.504-1.253-6.573-2.349-8.295-4.541-1.408-2.349-2.973-2.976.47-4.228 3.443-1.253 5.947-3.289 5.947-3.289-1.409-3.289-2.661-5.481-3.287-7.517 2.348-.626 4.852-1.096 7.043-1.722 11.112 12.997 23.006 29.91 35.057 49.642zm-88.112 54.809c2.034-1.252 2.347-3.914 2.347-8.769-2.347-3.289-3.599-7.047-.939-8.456 2.504-1.253 8.921-6.891 10.33-10.649 1.252-3.915 3.756-5.794 6.886-7.517 2.973-1.723 6.26-5.324 8.138-7.987 1.878-2.505 6.417-5.95 8.608-7.673.313-.157.626-.626 1.095-.94 5.165 14.721 10.173 31.32 15.181 49.486-17.215 2.192-35.213 3.445-53.681 3.602.783-.314 1.565-.627 2.035-1.097zm-7.2 382.886a952.11 952.11 0 0 0 119.257-7.517c2.817 38.994 4.539 77.204 4.852 113.535-39.596 5.324-81.226 7.987-123.952 8.143V629.682h-.157zm123.64-8.299c33.492-4.542 65.419-10.806 95.624-18.636 2.661 1.566 4.069 3.759 7.982 7.204 0 0-1.096 3.132-1.096 4.854 0 1.723-.626 4.229 1.096 5.168 1.095.626 6.73 3.132 10.329 5.638 3.6 28.971 5.791 57.628 6.26 85.19-35.839 10.335-74.496 18.479-115.344 23.96-.469-40.873-2.504-80.336-4.851-113.378zm1.408 217.203c2.817-31.633 3.756-65.145 3.6-98.031 40.534-5.325 79.348-13.468 115.344-23.803.156 19.261-.47 38.21-2.035 56.532-1.252 14.564-3.13 28.501-5.321 41.656-34.9 10.022-72.462 18.008-111.588 23.646zm122.387-64.832c1.565-18.636 2.348-38.21 2.035-58.568 34.274-10.023 66.201-22.238 94.685-36.018v10.179c-.626 31.789-4.382 61.23-10.642 88.322-27.388 13.624-58.063 25.682-91.243 35.548 2.191-12.685 3.913-25.839 5.165-39.463zm102.198-84.564c.156-4.228.156-8.613.156-12.998 17.998-9.082 34.745-18.792 49.925-29.284-.469 1.566-1.095 3.289-2.191 5.011 0 0 6.261 9.553 9.391 13.468 3.286 4.072 4.069 6.264 6.729 7.517 0 0-1.408 12.528-1.095 14.563.469 2.193 2.191 6.421.469 9.396-1.721 2.976-2.034 4.542.47 11.432 0 0-1.096 6.264-3.287 7.987-2.191 1.722-3.912 8.926-3.912 12.841 0 .783-.157 1.566-.313 2.349-18.781 15.66-41.005 30.067-66.202 43.065 5.791-26.466 9.077-54.81 9.86-85.347zm124.108-300.358c0 4.698-.312 9.396-.939 14.094-1.878-2.505-3.286-4.698-4.851-6.734-2.504-2.975-6.73-7.673-7.043-11.118-.469-3.445-4.382-13.468-8.295-13.781-.782 0-1.408-.313-2.034-.626a96.275 96.275 0 0 0 2.817-9.553c1.095 1.723 2.347 3.289 3.599 3.602 2.974 1.253 5.948 7.986 6.73 9.709.626 1.723 6.26 10.649 8.764 12.841.47.313.783.783 1.096 1.253.156.157.156.157.156.313zM383.693 32.099s4.538-.157 6.416-2.193c1.878-1.879 3.913-1.879 5.322-1.879 1.565 0 5.79-1.723 6.729-2.349.939-.626 3.913-.783 5.634-1.88l.157-.156a103.932 103.932 0 0 1 17.842 4.855c-6.73 2.349-13.147 5.011-18.938 7.83-10.642-1.253-20.032-2.193-28.484-2.819 2.035-1.096 5.322-1.41 5.322-1.41zm80.13-7.047c.783.313 1.878.156 2.661-.314 10.173-1.409 20.815-2.035 31.77-2.035 16.433 0 32.397 1.722 47.265 4.541-.626.47-.626.94.626 1.723 3.287 2.035 3.6 6.733 7.043 5.324 3.443-1.253 10.955-1.096 14.398.626 2.817 1.41 9.703 2.663 14.712 3.602 11.738 5.168 21.754 11.432 28.797 18.636 2.191 2.192 4.069 4.54 5.634 6.733-3.13-1.41-5.478-2.662-6.26-3.132-2.505-1.722-6.261-3.445-3.6-.156 1.408 1.566 6.886 4.541 12.364 7.203 0 .157.156.157.156.157.157.47.313.94.626 1.253 2.348 4.541 3.443 9.082 3.6 13.78-.157.314 0 .627 0 .94-.157 10.649-5.791 20.515-15.651 29.128-.626.156-1.408.626-1.721 1.409v.157c-5.008 4.071-11.112 7.986-17.998 11.431-.783 0-1.565.157-2.191.94l-.157.156c-7.199 3.446-15.337 6.421-23.945 8.927-.47 0-.939.156-1.409.313-2.504.626-5.164 1.253-7.668 1.879-1.096-2.192-3.6-3.445-5.948-4.541-2.973-1.253-6.573-5.795-6.573-5.795 0-9.396-.313-12.527-1.565-15.033-1.252-2.506-.782-8.3-.782-8.3-.313-3.132-13.773 2.662-17.059 5.168 0 0-2.348-1.566-5.322-2.036-2.973-.626 1.096-2.192 8.452-4.698 0 0-2.817-.313-5.321-1.566-2.505-1.253-3.287-3.445-7.043-2.192-3.913 1.409-14.086 3.132-14.086 3.132s.939 4.541.626 7.517c-.156 2.975-2.347.939-2.347.939s-7.199-2.505-8.764-4.698c0 0-15.181 5.794-17.686 7.047-2.504 1.253-2.817 1.096 1.879 3.289 0 0-3.287 2.349-6.261 4.854 0 0-2.973 1.41-9.703 1.723-6.73.156-5.634 4.228-5.947 7.673-.47 3.445.939 4.385 3.599 7.83 0 0 8.921-.626 12.208 1.096 1.721 1.097 2.817 1.88 3.756 3.289-14.712-1.879-28.64-4.698-41.161-8.926l.626-.627c-.313.157-1.408.157-2.504 0-.782-.469-2.035-.939-3.287-1.409-.469-.313-1.565-.626-2.817-1.096-2.347-.94-4.695-1.879-6.886-2.976-.939-1.722.313-2.818 3.443-4.071l-2.817-7.517-3.286-1.096s-2.035.783-2.035 2.505c0 1.723-1.252 3.446-1.252 5.168 0 .627-.157 1.253-.626 1.879-.939-.469-1.878-.939-2.817-1.566l1.408-.783s-2.034.47-3.13-.313c-.156-.156-.156-.156-.313-.156-.626-.47-1.565-.783-2.191-1.253 1.878-1.253 4.226-1.879 4.226-1.879 1.565-1.253 5.008-3.289 1.408-4.385-3.599-1.096-2.817-1.566-5.164-.47-2.348 1.096-5.321 1.879-5.321 1.879l-.47 1.41c-1.565-1.097-2.817-2.193-4.226-3.289l-.313-.313c.47-.157.939-.313 1.252-.313 1.565-.157 2.504-.94 3.131-1.566.626-.47 1.878-3.289 2.817-5.011.939-1.723-2.817-1.097-2.817-1.097s-4.07-1.566-4.539-2.662c-1.096-1.879-3.6-2.349-4.695-1.566-1.096.94-3.287 2.036-4.382 2.506h-.157c-4.852-6.577-7.356-13.468-7.356-20.515 0-9.24 4.226-18.165 12.677-26.465 15.651-15.503 44.761-27.092 78.409-31.946zm-91.242 40.09c-10.33 1.095-21.128 2.818-32.084 4.854 1.252-1.566 4.069-3.289 7.199-3.289 3.757 0 3.757-3.288 2.974-5.637-.626-1.88-.939-3.29-5.478-5.012a235.532 235.532 0 0 1 34.745-.626c-2.974 3.132-5.478 6.42-7.356 9.71zm-61.976-2.82c-2.191 3.132-7.982 5.794-10.173 4.072-.783-.627-1.565-1.41-2.035-2.35 4.383-1.095 8.765-2.035 13.147-2.974-.313.313-.626.782-.939 1.252zm59.159 8.77a31.783 31.783 0 0 0-2.348 10.649c-12.833 2.349-27.388 6.264-43.195 11.275.156-.157.156-.627.156-.783.47-2.976 3.287-4.698 6.417-8.457 1.565-1.879 3.6-4.698 5.321-7.047 11.581-2.505 22.85-4.384 33.649-5.637zM247.22 120.107l-.156.157c-2.817.626-7.2 6.734-9.86 10.336-28.954 15.816-58.533 35.548-86.86 59.664.939-13.624 5.164-27.405 12.52-40.403 27.701-20.514 58.22-36.487 89.364-48.859-2.66 6.264-4.382 12.685-5.008 19.105zm-5.477 14.094c-5.478 3.602-12.677 9.71-15.807 12.215-3.444 2.819-6.574 5.325-6.574 5.325 3.756.313 6.104.626 1.878 3.601-4.225 2.976-30.831 26.153-30.831 29.598-.157 3.445-2.035 14.72-5.478 17.695-3.443 2.976-10.642 13.155-10.642 13.155-.626-6.734 0-12.372-2.974-5.481-2.817 6.734-10.016 17.226-14.085 19.418-4.226-10.649-6.73-21.297-7.043-32.259 29.736-25.839 61.037-46.667 91.556-63.267zm-149.15 226.13c-.47 5.168-.782 12.998-.782 12.998l-5.478 2.819 2.347 11.901c-1.721 6.891-6.73 20.515-5.477 22.707 1.095 2.193 1.252 5.951 1.252 5.951-.47 2.506-.626 5.168-.626 7.517-9.703-10.649-17.685-21.298-23.945-32.26a465.116 465.116 0 0 1 23.006-45.883 255.331 255.331 0 0 0 9.703 14.25zm-5.947 74.698c3.913 4.072 8.138 7.83 12.52 11.588-7.042 18.166-13.146 36.488-17.841 54.654-3.13-2.819-6.26-5.795-9.234-8.613-13.929-13.938-24.884-28.345-33.023-43.222 5.009-17.382 11.112-34.452 18.312-51.364 7.668 12.841 17.372 25.056 29.266 36.957zm-18.311 61.7c3.6 3.602 7.512 7.204 11.425 10.649-.626 2.819-1.565 5.794-2.191 8.613-8.139 34.139-12.208 67.651-12.364 100.067a234.67 234.67 0 0 1-8.921-8.456c-14.712-14.721-26.293-30.067-34.744-45.571.939-35.235 6.26-70.313 15.65-104.921 7.982 13.467 18.311 26.622 31.145 39.619zm14.555 20.515c.47-1.879 1.095-3.915 1.565-5.794 17.841 15.19 38.813 29.127 62.289 41.655 1.095 1.879 2.348 3.758 3.6 5.324 1.878 2.193 3.286 5.638 5.79 7.674-6.26 35.391-9.86 70.313-10.329 103.825-29.11-14.72-54.307-31.32-75.123-49.172-.156-33.512 3.757-68.121 12.208-103.512zm62.758 159.105c0 4.228 0 8.613.157 12.841.626 30.85 4.069 59.508 10.016 86.13-26.136-13.468-49.299-28.658-68.392-44.944-10.173-32.573-15.808-66.868-16.59-102.26 21.128 17.853 46.325 33.982 74.809 48.233zM157.23 782.21a326.853 326.853 0 0 0 12.833 41.342c-23.476-12.371-44.291-26.152-61.819-41.185-6.887-13.781-12.834-28.031-17.842-42.595 18.937 15.503 41.474 29.754 66.828 42.438zm6.416 3.132c27.389 13.155 57.751 24.743 90.617 34.452 2.817 14.72 6.26 28.658 10.329 41.656-31.77-9.553-61.193-20.985-87.33-33.983-5.321-13.311-10.016-27.404-13.616-42.125zm62.133 68.434c13.146 5.011 26.919 9.396 40.848 13.624 3.286 9.709 7.043 19.105 11.425 27.875-30.049-8.926-58.064-19.731-82.948-32.103-5.321-8.926-10.329-18.479-14.711-28.658 14.085 6.891 29.109 13.311 45.386 19.262zm47.108 15.347c9.703 2.662 19.563 5.324 29.579 7.517.314 1.252.783 2.505 1.096 4.071.939 4.229 2.191 9.396.939 12.058-.939 1.88-.313 5.795 1.096 9.71-7.043-1.723-13.929-3.446-20.503-5.325-4.695-8.613-8.607-18.009-12.207-28.031zm34.901 39.62c2.347 5.324 5.634 13.624 5.634 13.624-1.722 4.541-2.974 9.709-3.756 10.648 3.756 2.349 4.382 4.385 4.851 6.891.157.939.783 1.879 1.565 2.662-10.485-11.275-19.719-24.273-27.701-38.837 6.417 1.723 12.99 3.446 19.407 5.012zm21.128 40.715c.469 1.723 1.095 3.132 1.878 4.385-1.565-.313-2.974-.626-4.539-1.096-1.721-1.566-3.286-3.289-5.008-4.854 1.722.626 4.539 1.252 7.669 1.565zm46.795 14.721c.156-.627.782-1.096 1.408-.783.783.47 2.035-.627 2.974-1.096.783-.47 3.443-1.253 4.226-1.097.939.157 1.721-1.409 1.721-1.409-1.408-1.566-2.347-2.819-2.191-4.072a8.44 8.44 0 0 0-.156-2.662c1.878 1.096 3.286 1.41 5.164.627 1.878-.94 3.443.156 4.539.469.313 0 1.252.157 2.348.47 2.347 5.011 4.851 10.023 7.512 14.251a4945.392 4945.392 0 0 1-27.545-4.698zm110.18-209.843c-5.635-2.193-8.139-2.35-12.834-1.88-4.695.47-5.634 5.325-8.295 7.987-2.504 2.505-4.225 2.975-6.729 2.505-2.504-.469-4.226-.939-6.261-4.541 0 0 3.6.783 7.982.157 4.226-.627 9.547-8.77 9.547-8.77-.939.47-3.913-.313-6.73-1.253 10.956.313 21.754.627 32.866.627v8.456c-3.599-1.253-7.199-2.349-9.546-3.288zm14.867-5.168c42.57-.157 84.2-2.819 123.953-8.144.156 35.079-1.096 68.121-3.913 98.188-23.945 3.289-48.517 5.325-73.401 6.734-.156-.313-.157-.626-.157-1.253 1.566-2.349 1.879-5.011 1.879-5.95 3.443-2.663 8.764-6.734 9.39-8.457.626-1.722 1.878-3.288 4.225-5.168 2.348-1.879 3.6-5.324 7.2-6.733 3.599-1.253 11.112-8.77 11.425-10.493 0 0 1.878-4.384 2.817-12.997.939-8.457-3.913-13.155-4.069-12.685-.157.313-5.791-1.409-8.765-.626-2.973.939-5.008-.313-7.668-1.879-2.818-1.566-11.582-7.047-15.025-9.083-3.443-1.879-5.634-3.289-8.608-2.349-2.973.939-5.164 1.096-8.921-1.096-3.912-2.193-9.39-1.88-15.024-1.88-5.478 0-7.199-1.566-10.642-3.915-1.096-.626-2.817-1.409-4.696-2.192v-10.022zm0 181.342c36.153-.157 71.367-2.349 105.485-6.734-5.321 18.479-12.051 33.982-20.189 45.571-27.545 3.601-56.186 5.481-85.139 5.637l-.157-44.474zm110.806-7.36c33.649-4.542 65.889-10.962 96.094-19.419-10.329 19.262-22.85 35.392-37.718 48.703-24.414 6.89-50.238 12.371-77.157 16.13 7.826-12.215 13.929-27.719 18.781-45.414zm1.722-5.794c2.191-8.457 4.069-17.54 5.79-26.779 36.309-5.011 71.21-12.215 104.233-21.454-3.6 9.866-7.512 19.262-11.895 27.875-30.831 8.926-63.697 15.66-98.128 20.358zm116.283-50.112c14.085-4.072 27.701-8.613 40.848-13.624 16.12-5.951 31.301-12.372 45.386-19.262-4.382 10.179-9.234 19.575-14.555 28.658-24.884 12.371-52.898 23.176-82.947 32.102 4.069-8.769 7.825-18.165 11.268-27.874zm1.878-5.951c4.069-13.154 7.512-26.935 10.486-41.656 19.876-5.794 38.97-12.371 57.124-19.575 11.582-4.697 22.693-9.709 33.492-14.876-3.599 14.876-8.294 29.127-13.616 42.281-26.292 12.842-55.559 24.273-87.486 33.826zm107.519-79.553c21.911-10.962 41.63-23.176 58.846-36.017-1.878 3.601-3.287 7.986-4.069 11.901-1.096 5.481-3.287 5.794-.939 14.564-1.565 3.288-3.13 6.734-4.852 10.179-17.528 14.877-38.344 28.814-61.819 41.185 5.008-13.311 9.39-27.248 12.833-41.812zm51.49 7.83c-.626 2.036-1.878 4.072-3.13 5.795 1.096-1.88 2.035-3.915 3.13-5.795zM350.67 30.22c0 .156-.156.156-.156.313-.47.783-2.191 1.722-4.226 2.505 0 .157-.157.157-.157.157-1.408.156-2.817.156-4.225.313 2.817-1.096 5.79-2.036 8.764-3.289zm3.287 7.986c-1.409.626-3.287 1.096-6.104 1.566-2.035.313-5.947 2.506-7.512 2.506-1.565 0-4.226 1.722-5.008 1.879-.626.156-2.348.94-4.226 1.566l-1.878.626s-.157 1.566 1.565 1.253c1.721-.157 2.817.626 2.817 2.192 2.035-1.722 3.6-2.975 5.947-2.975 2.348 0 5.165.47 5.634-.47.47-.94 5.165-2.662 5.165-2.662s7.512-1.096 8.921-2.975c0 0 2.973-.157 4.069-1.567.313-.47 1.096-.782 1.878-1.252 9.703.156 20.502 1.096 33.492 2.505-5.008 2.976-9.39 6.108-13.303 9.553-18.311-1.41-37.717-.627-57.437 2.349v-.313c.156-.47-2.035.156-4.539 1.096-9.703 1.566-19.25 3.602-28.953 6.107a196.456 196.456 0 0 1 27.701-16.6c10.799-2.505 20.815-3.914 31.771-4.384zm-67.611 15.503c5.165-1.879 10.173-3.445 14.712-5.01-7.043 4.54-13.772 9.239-19.563 14.406-13.616 4.072-26.919 9.083-39.752 14.877 14.398-8.926 29.266-17.07 44.603-24.273zM196.2 110.398c.313-.313.626-.626.626-1.096.156 0 .156 0 .313-.156 21.754-15.347 46.951-27.875 73.4-36.958a31.713 31.713 0 0 0-1.095 1.566c-.157.47-.47.94-.626 1.41-1.878 2.192-3.756 4.54-5.478 6.733-1.721 1.566-3.599 2.35-4.695 1.723-2.974-1.253-8.764-.783-11.268.783-2.504 1.566-2.817 2.036-2.817 2.036 7.355 4.698 10.642 3.915 11.268 7.047-.157.156-.157.156-.157.313-29.266 11.275-58.219 25.682-84.982 43.848 6.73-9.24 15.338-18.479 25.511-27.249zm-46.169 39.933c5.164-5.168 10.329-10.179 15.807-14.877-2.505 3.602-4.852 7.047-7.043 10.649-7.199 5.324-14.086 10.962-20.972 16.913a458.113 458.113 0 0 1 12.208-12.685zM89.463 223.62c3.6-5.325 7.2-10.492 10.955-15.66 1.096.156 2.035-.157 2.817-.94 14.399-18.635 31.302-34.921 49.613-49.485-5.322 12.371-8.139 24.899-8.295 37.74-26.293 23.02-51.177 50.112-73.088 81.432 1.409-18.166 7.512-35.861 17.998-53.087zm55.559-21.454c.626 10.648 3.287 20.984 7.669 31.163-6.417 5.794-17.059 17.382-19.094 17.382.47 0-6.103 6.264-7.668 9.396-2.348 4.542-3.6 5.951-5.634 10.179-1.879 4.072-3.131 5.481-3.131 5.481l1.409 3.132c-4.069 5.795-10.173 13.625-10.642 17.07-.157.626-.313 1.253-.626 1.879-7.043 9.709-13.773 19.731-20.033 30.067-1.409 2.349-2.817 4.541-4.07 6.89-7.824-15.816-11.894-32.102-12.05-48.545 21.91-32.417 47.264-60.291 73.87-84.094zm-95.937 94.742c.156-.313.156-.626.156-1.096 6.26-13.624 12.834-26.935 20.346-39.933a111.707 111.707 0 0 0-3.756 28.658c-7.513 11.119-14.555 23.02-21.285 35.235.626-7.36 2.191-15.034 4.539-22.864zm17.059-2.818c1.252 15.816 5.947 31.319 13.929 46.353-8.451 14.877-16.277 29.754-23.163 45.101-8.451-17.07-12.833-34.765-13.146-52.618 6.886-13.624 14.398-26.465 22.38-38.836zm-27.389 26.621c-.313 3.602-.626 7.204-.626 10.962-4.382 8.613-8.45 17.54-12.363 26.466 3.912-12.528 8.294-25.056 12.99-37.428zm-15.18 58.412c4.538-12.528 9.703-24.429 15.337-36.018 1.565 16.756 6.73 33.199 15.337 49.172-7.042 16.6-13.303 33.356-18.467 50.269-8.295-17.539-12.364-35.392-12.364-53.714-.313-3.288-.157-6.42.156-9.709zM5.732 498.608c0-31.319 2.973-62.326 8.764-92.706 1.096-3.602 2.191-7.204 3.443-10.806.94 18.792 6.104 37.271 15.494 54.967-9.547 33.355-15.18 67.337-16.902 101.163-5.478-12.841-9.078-25.839-10.486-38.993-.157-4.385-.313-9.083-.313-13.625zm2.19 46.041c2.192 6.264 5.01 12.371 8.14 18.478-.314 13.468 0 26.936.938 40.247-4.226-19.262-7.2-38.837-9.077-58.725zm26.92 121.364c-2.817-7.516-5.321-15.346-7.669-23.02-3.913-23.176-5.79-46.823-5.79-70.47 7.981 13.155 18.31 26.153 30.83 38.837 4.07 4.072 8.296 7.987 12.678 11.902.313 34.765 5.008 68.277 14.242 100.223-18.78-17.382-33.492-36.174-43.04-56.219-.156-.626-.782-.939-1.251-1.253zm31.3 69.374a527.078 527.078 0 0 1-20.188-41.186c9.86 13.781 22.067 26.935 36.465 39.463 4.226 13.468 9.234 26.622 15.181 39.463-12.207-11.745-22.536-23.959-30.518-36.957-.313-.47-.626-.783-.94-.783zm48.987 72.819c-10.016-12.372-19.25-24.9-27.858-37.897 5.008 5.324 10.642 10.335 16.433 15.346 4.069 8.3 8.608 16.443 13.459 24.43-.782-.783-1.408-1.253-2.034-1.879zm-.939-13.938c16.902 13.155 36.466 25.213 58.376 36.488 4.069 9.709 8.452 18.949 13.303 27.718-20.189-10.649-38.5-22.55-54.151-35.235-6.26-9.552-12.207-19.261-17.528-28.971zm35.84 52.774c-3.6-3.601-7.043-7.516-10.643-11.275 15.338 11.432 32.71 21.768 51.803 31.477 8.452 13.937 17.998 26.622 28.641 37.74-24.885-17.069-48.204-36.331-69.801-57.942zm50.394 24.743c24.571 11.589 51.647 21.767 80.757 30.067 9.39 18.322 20.658 34.295 33.805 47.763-24.728-7.517-47.734-16.913-68.393-27.561-17.685-13.625-33.179-30.381-46.169-50.269zm103.763 79.866a569.433 569.433 0 0 0 19.407 5.951c1.252 1.096 2.66 2.349 4.069 3.288-8.138-2.819-15.807-5.951-23.476-9.239zm30.362 11.588c.626-.783.626-1.566.313-2.505 1.565.313 3.13.626 4.539 1.096 1.565.783 1.095.783 3.286 3.288.47.627 1.096 1.097 1.565 1.566-3.286-1.096-6.729-2.035-10.016-3.288 0-.157.157-.157.313-.157zm22.537 7.517a4052.17 4052.17 0 0 1-3.287-.94c1.096 0 2.191.314 3.287.94zm20.502 5.481c2.348-.783 4.539-1.096 3.13-3.289-.626-.939-1.408-1.879-1.878-2.975 9.39 1.723 18.937 3.289 28.64 4.541 2.505 3.602 5.322 6.734 8.139 9.553-12.834-1.879-25.511-4.698-38.031-7.83zM495.28 991.27c-23.789-.156-47.265-1.879-70.271-5.324a3.423 3.423 0 0 0-.783-1.253c-3.286-2.505-6.416-5.637-9.233-9.082 26.136 3.132 52.898 4.854 80.443 4.854l-.156 10.805zm0-16.286c-29.11-.156-57.594-1.879-85.139-5.324-2.974-4.385-5.791-9.24-8.451-14.564.469-.157.939-.157 1.095-.313 1.722-1.096 6.104 1.879 7.982.939 0 0 6.73-1.879 6.886-3.445.157-1.566-.626-1.879-3.286-2.819-2.504-1.096-5.322-4.541-5.948-5.794-.626-1.253-4.695-1.879-5.477-4.071-.47-1.41.626-1.097 2.034.313 2.504-.627 3.443-.47 4.226.47.939.939 4.069 1.879 5.165 1.879 1.095 0 6.26 1.566 6.26 1.566 1.252 1.253 7.199 2.819 9.86 1.253 2.504-1.566 8.451-4.542 10.642-5.011 2.191-.47 4.226-2.663 5.008-3.289.626-.627 1.252-1.566 3.443-2.193 1.252-1.879 2.035-2.818 3.756-2.505 1.722-1.096 3.6-1.409 4.852-2.662 12.364.626 24.728.939 37.248 1.096v44.474h-.156zm0-49.799c-9.86 0-19.563-.156-29.423-.626l4.538-3.602c1.253-3.445.157-2.818-.156-4.071-.313-1.253-1.409-4.698-.626-6.264.939-1.566 2.191-2.349 3.287-2.819 1.095-.47 2.191-1.566 3.286-2.819 3.913-.939 5.947-1.409 7.512-2.819 1.565-1.566 4.696-1.879 5.948-2.349.626-.156 2.347-.783 3.756-1.252h1.721v26.621h.157zm76.531 59.508c-.313.314-.626.627-.783 1.096-23.006 3.446-46.325 5.325-70.271 5.325v-10.649c27.389-.156 54.464-1.879 80.444-5.011-2.973 3.602-6.104 6.734-9.39 9.239zm8.608-.313c2.973-2.819 5.79-6.264 8.451-9.709 25.197-3.289 49.455-7.987 72.462-14.094-.313.94-.157 1.879.313 2.662h.156c-26.293 9.24-53.368 16.443-81.382 21.141zm88.425-23.646c1.252-1.097 2.661-2.193 3.913-3.289 6.26-1.879 12.52-3.602 18.624-5.638-7.356 2.976-14.868 6.108-22.537 8.927zm80.913-39.15c-20.502 10.648-43.508 19.888-68.393 27.561 13.147-13.467 24.259-29.284 33.649-47.449 29.11-8.457 56.342-18.479 80.913-30.068-13.146 19.732-28.484 36.645-46.169 49.956zm26.919-17.07c10.486-10.962 19.876-23.49 28.327-37.27 19.094-9.553 36.466-20.045 51.96-31.477-24.258 25.526-51.021 48.546-80.287 68.747zm33.492-46.196c4.852-8.77 9.234-18.009 13.146-27.719 22.068-11.118 41.631-23.49 58.533-36.487a359.709 359.709 0 0 1-17.528 28.657c-15.651 12.998-33.805 24.9-54.151 35.549z"/></svg>